<?xml version="1.0" encoding="UTF-8"?>
<svg width="500px" height="500px" viewBox="0 0 500 500" version="1.1" xmlns="http://www.w3.org/2000/svg" xmlns:xlink="http://www.w3.org/1999/xlink">
    <!-- Generator: Sketch 52.3 (67297) - http://www.bohemiancoding.com/sketch -->
    <title>logo-icon</title>
    <desc>Created with Sketch.</desc>
    <defs>
        <linearGradient x1="50%" y1="-2.48949813e-15%" x2="50%" y2="100%" id="linearGradient-1">
            <stop stop-color="#6E4DDE" offset="0%"></stop>
            <stop stop-color="#5D7CF6" offset="100%"></stop>
        </linearGradient>
    </defs>
    <g id="logo-icon" stroke="none" stroke-width="1" fill="none" fill-rule="evenodd">
        <g id="Icon:-Rounded-Square-#1">
            <g id="logo-attempt-1">
                <rect id="Rectangle" stroke-opacity="0.15" stroke="#0A2282" stroke-width="5" fill="url(#linearGradient-1)" x="2.5" y="2.5" width="495" height="495" rx="100"></rect>
                <g id="logo-6-smaller-gap" transform="translate(71.000000, 71.000000)" fill="#FFFFFF">
                    <path d="M25,238.628125 L119.371875,238.628125 L119.371875,358 L25,358 C11.1928813,358 -1.8618293e-15,346.807119 -3.55271368e-15,333 L-3.55271368e-15,263.628125 C-5.24359806e-15,249.821006 11.1928813,238.628125 25,238.628125 Z" id="Rectangle" opacity="0.5"></path>
                    <rect id="Rectangle" opacity="0.6" x="119.371875" y="238.628125" width="119.371875" height="119.371875"></rect>
                    <path d="M238.628125,238.628125 L358,238.628125 L358,333 C358,346.807119 346.807119,358 333,358 L238.628125,358 L238.628125,238.628125 Z" id="Rectangle" opacity="0.8"></path>
                    <path d="M144.371875,119.371875 L238.74375,119.371875 L238.74375,238.74375 L119.371875,238.74375 L119.371875,144.371875 C119.371875,130.564756 130.564756,119.371875 144.371875,119.371875 Z" id="Rectangle" opacity="0.7"></path>
                    <rect id="Rectangle" opacity="0.9" x="238.628125" y="119.371875" width="119.371875" height="119.371875"></rect>
                    <path d="M263.628125,0 L333,-3.55271368e-15 C346.807119,-1.83522252e-14 358,11.1928813 358,25 L358,119.371875 L238.628125,119.371875 L238.628125,25 C238.628125,11.1928813 249.821006,-1.01638711e-15 263.628125,-3.55271368e-15 Z" id="Rectangle"></path>
                </g>
            </g>
        </g>
    </g>
</svg>