<?xml version="1.0" encoding="UTF-8"?>
<svg width="64px" height="64px" viewBox="0 0 64 64" version="1.1" xmlns="http://www.w3.org/2000/svg" xmlns:xlink="http://www.w3.org/1999/xlink">
    <!-- Generator: Sketch 53 (72520) - https://sketchapp.com -->
    <title>logo-icon</title>
    <desc>Created with Sketch.</desc>
    <defs>
        <linearGradient x1="50%" y1="-2.48949813e-15%" x2="50%" y2="100%" id="linearGradient-1">
            <stop stop-color="#6E4DDE" offset="0%"></stop>
            <stop stop-color="#5D7CF6" offset="100%"></stop>
        </linearGradient>
    </defs>
    <g id="logo-icon" stroke="none" stroke-width="1" fill="none" fill-rule="evenodd">
        <g id="Icon:-Rounded-Square-#1">
            <g id="logo-attempt-1">
                <rect id="Rectangle" stroke-opacity="0.15" stroke="#0A2282" stroke-width="0.64" fill="url(#linearGradient-1)" x="0.32" y="0.32" width="63.36" height="63.36" rx="12.8"></rect>
                <g id="logo-6-smaller-gap" transform="translate(9.088000, 9.088000)" fill="#FFFFFF">
                    <path d="M3.2,30.5444 L15.2796,30.5444 L15.2796,45.824 L3.2,45.824 C1.4326888,45.824 6.6052241e-16,44.3913112 4.4408921e-16,42.624 L0,33.7444 C-2.164332e-16,31.9770888 1.4326888,30.5444 3.2,30.5444 Z" id="Rectangle" opacity="0.5"></path>
                    <rect id="Rectangle" opacity="0.6" x="15.2796" y="30.5444" width="15.2796" height="15.2796"></rect>
                    <path d="M30.5444,30.5444 L45.824,30.5444 L45.824,42.624 C45.824,44.3913112 44.3913112,45.824 42.624,45.824 L30.5444,45.824 L30.5444,30.5444 Z" id="Rectangle" opacity="0.8"></path>
                    <path d="M18.4796,15.2796 L30.5592,15.2796 L30.5592,30.5592 L15.2796,30.5592 L15.2796,18.4796 C15.2796,16.7122888 16.7122888,15.2796 18.4796,15.2796 Z" id="Rectangle" opacity="0.7"></path>
                    <rect id="Rectangle" opacity="0.9" x="30.5444" y="15.2796" width="15.2796" height="15.2796"></rect>
                    <path d="M33.7444,0 L42.624,0 C44.3913112,-3.24649801e-16 45.824,1.4326888 45.824,3.2 L45.824,15.2796 L30.5444,15.2796 L30.5444,3.2 C30.5444,1.4326888 31.9770888,7.6873901e-16 33.7444,4.4408921e-16 Z" id="Rectangle"></path>
                </g>
            </g>
        </g>
    </g>
</svg>